<svg width="200" height="200" xmlns="http://www.w3.org/2000/svg">
    <defs>
        <clipPath id="book">
            <rect x="14%" y="5%" width="72%" height="90%" rx="15" />
        </clipPath>

        <symbol id="filter" viewBox="0 0 24 24">
            <path
                d="M18.5229 4.22593C14.1878 3.74142 9.8122 3.74142 5.47708 4.22593C4.39873 4.34646 3.87943 5.61102 4.56187 6.45461L8.33093 11.1137C9.41084 12.4486 10 14.1137 10 15.8307V18.9733C10 19.2122 10.1138 19.4369 10.3065 19.5781L13.077 21.6099C13.4601 21.8908 14 21.6172 14 21.1421V15.8307C14 14.1137 14.5892 12.4486 15.6691 11.1137L19.4381 6.45461C20.1206 5.61102 19.6013 4.34646 18.5229 4.22593Z"
                fill="#ffffff"
            />
        </symbol>
    </defs>

    <!-- Outline rectangle -->
    <rect x="14%" y="5%" width="72%" height="90%" rx="15" fill="none" stroke="brown" stroke-width="5" />

    <g clip-path="url(#book)">
        <rect width="100%" height="100%" fill="#aea62d" />

        <rect width="24%" height="100%" fill="#838432" />

        <use href="#filter" x="50%" y="55%" width="36%" height="36%" />
    </g>
</svg>
